# xmcd
#
# Track frame offsets: 
#        150
#        15466
#        31518
#        53722
#        70819
#        87611
#        105758
#        121095
#        138490
#
# Disc length: 2057 seconds
#
# Revision: 0
# Processed by: cddbd v1.5.2PL0 Copyright (c) Steve Scherf et al.
# Submitted via: ExactAudioCopy v0.95b3
#
DISCID=64080709
DTITLE=Lee Shot Williams - Let The Good Times Roll
DYEAR=2002
DGENRE=Blues
TTITLE0=1. Let The Good Times Roll
TTITLE1=2. Get Away
TTITLE2=3. Ain't Gettin' No Easiee
TTITLE3=4. Southern Girl
TTITLE4=5. Sex Me Up
TTITLE5=6. Ain't No Use 
TTITLE6=7. Ain't No Woman
TTITLE7=8. Shaky Ground
TTITLE8=9. Crossroad
EXTD=
EXTT0=
EXTT1=
EXTT2=
EXTT3=
EXTT4=
EXTT5=
EXTT6=
EXTT7=
EXTT8=
PLAYORDER=
